<svg width="155" height="30" fill="green"> <defs> <linearGradient  id="gradient-629579398" x1="0" x2="0" y1="1" y2="0"> <stop offset="0%" stop-color="green"></stop> <stop offset="10%" stop-color="green"></stop> <stop offset="25%" stop-color="green"></stop> <stop offset="50%" stop-color="green"></stop> </linearGradient> <mask id="sparkline-629579398" x="0" y="0" width="155" height="28"> <polyline transform="translate(0, 28) scale(1,-1)" points="0,1 3,1 6,1 9,1 12,1 15,1 18,1 21,1 24,6 27,1 30,1 33,2 36,1 39,1 42,1 45,1 48,1 51,1 54,1 57,1 60,2 63,1 66,1 69,1 72,1 75,1 78,1 81,1 84,1 87,1 90,1 93,2 96,6 99,2 102,1 105,1 108,1 111,1 114,1 117,2 120,1 123,1 126,1 129,1 132,1 135,1 138,1 141,1 144,1 147,1 150,1 153,1 " fill="transparent" stroke="#8cc665" stroke-width="2"> </polyline></mask> </defs> <g transform="translate(0, -10)"> <rect x="0" y="-2" width="155" height="30" style="stroke: none; fill: url(#gradient-629579398); mask: url(#sparkline-629579398)"></rect> </g>
</svg>